<svg xmlns="http://www.w3.org/2000/svg" viewBox="0 0 700 280" width="700" height="280" font-family="-apple-system,BlinkMacSystemFont,'Segoe UI',Helvetica,Arial,sans-serif">
  <!-- Background -->
  <rect width="700" height="280" fill="#faf9ff" rx="12"/>
  <rect width="700" height="280" fill="none" stroke="#e5e0ff" stroke-width="1" rx="12"/>

  <!-- Title -->
  <text x="350" y="26" text-anchor="middle" font-size="13" font-weight="700" fill="#1a1523">Without SigMap vs With SigMap — 3 RAG quality metrics</text>
  <text x="350" y="42" text-anchor="middle" font-size="11" fill="#9ca3af">90 tasks · 18 real repos · no LLM API</text>

  <!-- Legend -->
  <rect x="195" y="50" width="12" height="12" fill="#ef4444" rx="2"/>
  <text x="212" y="61" font-size="11" fill="#6b7280">Without SigMap</text>
  <rect x="330" y="50" width="12" height="12" fill="#7c6af7" rx="2"/>
  <text x="347" y="61" font-size="11" fill="#6b7280">With SigMap</text>
  <rect x="462" y="50" width="12" height="12" fill="#22c55e" rx="2"/>
  <text x="479" y="61" font-size="11" fill="#6b7280">Improvement</text>

  <!-- ═══════════════════════════════════════════ -->
  <!-- METRIC 1: Finding the right file           -->
  <!-- ═══════════════════════════════════════════ -->
  <text x="20" y="85" font-size="10" font-weight="600" fill="#9ca3af" letter-spacing="1">FINDING THE RIGHT FILE</text>

  <!-- Without row -->
  <text x="105" y="103" text-anchor="end" font-size="11" fill="#9ca3af">Without</text>
  <rect x="112" y="90" width="462" height="20" fill="#fee2e2" rx="4"/>
  <!-- 13.6% of 462 = 62.8 -->
  <rect x="112" y="90" width="63" height="20" fill="#ef4444" rx="4"/>
  <text x="181" y="104" font-size="11" font-weight="600" fill="#ef4444">13.6%</text>

  <!-- With row -->
  <text x="105" y="126" text-anchor="end" font-size="11" fill="#7c6af7">SigMap</text>
  <rect x="112" y="113" width="462" height="20" fill="#ede9fe" rx="4"/>
  <!-- 81.1% of 462 = 374.7 -->
  <rect x="112" y="113" width="375" height="20" fill="#7c6af7" rx="4"/>
  <text x="492" y="127" text-anchor="end" font-size="11" font-weight="700" fill="#fff">81.1%</text>

  <!-- Badge -->
  <rect x="588" y="95" width="94" height="32" fill="#7c6af7" rx="6"/>
  <text x="635" y="108" text-anchor="middle" font-size="11" font-weight="700" fill="#fff">+6.0× lift</text>
  <text x="635" y="121" text-anchor="middle" font-size="9" fill="#ded9ff">retrieval</text>

  <!-- ═══════════════════════════════════════════ -->
  <!-- METRIC 2: Answer correctness               -->
  <!-- ═══════════════════════════════════════════ -->
  <text x="20" y="155" font-size="10" font-weight="600" fill="#9ca3af" letter-spacing="1">ANSWER CORRECTNESS</text>

  <!-- Without row -->
  <text x="105" y="173" text-anchor="end" font-size="11" fill="#9ca3af">Without</text>
  <rect x="112" y="160" width="462" height="20" fill="#fee2e2" rx="4"/>
  <!-- 10% of 462 = 46.2 -->
  <rect x="112" y="160" width="46" height="20" fill="#ef4444" rx="4"/>
  <text x="164" y="174" font-size="11" font-weight="600" fill="#ef4444">~10%</text>

  <!-- With row -->
  <text x="105" y="196" text-anchor="end" font-size="11" fill="#22c55e">SigMap</text>
  <rect x="112" y="183" width="462" height="20" fill="#dcfce7" rx="4"/>
  <!-- 53.3% of 462 = 246.2 -->
  <rect x="112" y="183" width="246" height="20" fill="#22c55e" rx="4"/>
  <text x="352" y="197" text-anchor="end" font-size="11" font-weight="700" fill="#fff">53.3%</text>

  <!-- Badge -->
  <rect x="588" y="165" width="94" height="32" fill="#22c55e" rx="6"/>
  <text x="635" y="178" text-anchor="middle" font-size="11" font-weight="700" fill="#fff">×5.3 better</text>
  <text x="635" y="191" text-anchor="middle" font-size="9" fill="#bbf7d0">correctness</text>

  <!-- ═══════════════════════════════════════════ -->
  <!-- METRIC 3: Hallucination risk               -->
  <!-- ═══════════════════════════════════════════ -->
  <text x="20" y="225" font-size="10" font-weight="600" fill="#9ca3af" letter-spacing="1">HALLUCINATION RISK</text>

  <!-- Without row -->
  <text x="105" y="243" text-anchor="end" font-size="11" fill="#9ca3af">Without</text>
  <rect x="112" y="230" width="462" height="20" fill="#fee2e2" rx="4"/>
  <!-- 92% of 462 = 425.0 -->
  <rect x="112" y="230" width="425" height="20" fill="#ef4444" rx="4"/>
  <text x="215" y="244" font-size="11" font-weight="700" fill="#fff">92% of codebase hidden</text>

  <!-- With row — 0% -->
  <text x="105" y="266" text-anchor="end" font-size="11" fill="#22c55e">SigMap</text>
  <rect x="112" y="253" width="462" height="20" fill="#dcfce7" rx="4"/>
  <text x="122" y="267" font-size="11" font-weight="700" fill="#22c55e">0% — fully indexed ✓</text>

  <!-- Badge -->
  <rect x="588" y="235" width="94" height="32" fill="#22c55e" rx="6"/>
  <text x="635" y="248" text-anchor="middle" font-size="11" font-weight="700" fill="#fff">−92 pts</text>
  <text x="635" y="261" text-anchor="middle" font-size="9" fill="#bbf7d0">eliminated</text>
</svg>
